<svg version="1.1" xmlns="http://www.w3.org/2000/svg" xmlns:xlink="http://www.w3.org/1999/xlink" x="0px" y="0px" viewBox="0 0 256 256">

<path fill="#11245C" d="M164.9,10.6c-2.3,0.9-4.3,2.8-18.8,17.2c-9,8.9-16.3,16.5-16.3,16.7c0,0.6,81,81.6,81.6,81.6c0.3,0,7.7-7.2,16.5-16.1C246,91.7,246,91.8,246,85.5c0-3.2-0.2-4.3-1.1-6.2c-1.6-3.4-64.9-66.6-68.2-68.2C173.4,9.5,168.3,9.3,164.9,10.6z"/>

<path fill="#11245C" d="M85.1,67.8C66.8,74.9,50.7,81.3,49.3,82c-2.7,1.5-4.5,3.5-6.1,6.4c-0.7,1.5-14.2,60.4-33.2,145.4c-0.4,2,0.8,0.8,31.2-29.6l31.6-31.6l-1.6-3.9c-1.9-4.9-2.7-9.4-2.3-13.6c1-10.4,7.2-19.4,16.2-23.9c5.4-2.6,8.7-3.3,14.6-3.1c8.1,0.4,14.1,3,19.6,8.5c5.5,5.5,8.1,11.5,8.5,19.6c0.3,5.8-0.4,9.2-3.1,14.6c-3.4,6.9-9.8,12.4-17.3,14.8c-7,2.3-15.7,1.6-22.2-1.8l-1.8-0.9l-31.7,31.7L20,246.3l2.7-0.6c1.5-0.3,34.3-7.7,72.8-16.4c77.3-17.4,74.7-16.7,77.4-20.8c0.8-1.2,7.3-17.5,14.7-36.9l13.4-34.9l-40.9-40.9c-22.5-22.5-41.1-40.9-41.3-40.8C118.6,55,103.4,60.8,85.1,67.8z"/>

</svg>