<svg version="1.1" xmlns="http://www.w3.org/2000/svg" xmlns:xlink="http://www.w3.org/1999/xlink" x="0px" y="0px" viewBox="0 0 256 256">

<path fill="#11245C" d="M68.9,68.9L10,127.8l8.1,8.1l8.1,8.1L77.1,93L128,42L178.9,93l50.9,50.9l8.1-8.1l8.1-8.1l-58.9-58.9C154.7,36.5,128.1,10,128,10S101.3,36.5,68.9,68.9z"/>

<path fill="#11245C" d="M83.6,106.7l-44.1,44.1v47.6V246h33h33v-40.6v-40.6l22.7,0.1l22.7,0.1l0.1,40.4L151,246h32.7h32.7v-47.6v-47.6l-44.2-44.2c-24.2-24.2-44.2-44.1-44.3-44.1S107.9,82.4,83.6,106.7z"/>

</svg>