<svg version="1.1" xmlns="http://www.w3.org/2000/svg" xmlns:xlink="http://www.w3.org/1999/xlink" x="0px" y="0px" viewBox="0 0 256 256">

<path fill="#11245C" d="M93.3,121.1c-45.8,0-83.3,27.8-83.3,62.5c0,12.5,5.6,25,13.9,34.7h138.8c8.3-9.7,13.9-22.2,13.9-34.7C176.6,148.8,139.1,121.1,93.3,121.1z M134.9,79.4c0-23.6-18-41.6-41.6-41.6s-41.6,18-41.6,41.6s18,41.6,41.6,41.6C116.9,121.1,134.9,103,134.9,79.4z M189.1,176.6H246v-13.9h-61.1C187.7,166.9,189.1,172.4,189.1,176.6z M184.9,204.4H246v-13.9h-56.9C189.1,196,187.7,200.2,184.9,204.4z M178,148.8h68V135h-81.9C169.6,139.1,175.2,144.7,178,148.8z M148.8,79.4c0,5.6-1.4,9.7-2.8,13.9H246V79.4H148.8z M133.6,116.9l11.1,4.2H246v-13.9H141.9C137.7,114.1,133.6,116.9,133.6,116.9z"/>

</svg>